PathFileType  4	(X/Y/Z) C:\Users\antoi\Documents\MyRepositories\mobilecap\ResultsAnalysis
DataRate	CameraRate	NumFrames	NumMarkers	Units	OrigDataRate	OrigDataStartFrame	OrigNumFrames
100.0	100.0	4	51	mm	100.0	65	257
Frame#	Time	r_knee			r_shank_antsup			r_ankle			r_calc			r_5meta			r_toe			L_knee			L_shank_antsup			L_ankle			L_calc			L_5meta			L_toe			r_sh2			r_sh3			r_sh4			L_sh2			L_sh3			r_thigh1			r_thigh2			r_thigh3			r_thigh4			r_thigh5			L_thigh1			L_thigh2			L_thigh3			L_thigh4			r.ASIS			r.PSIS			L.ASIS			L.PSIS			C7			R_Shoulder			L_Shoulder			R_Sternum			L_Sternum			R_humerus			R_elbow_med			R_elbow_lat			R_forearm			R_wrist_radius			R_wrist_ulna			L_humerus			L_elbow_med			L_elbow_lat			L_forearm			L_wrist_radius			L_wrist_ulna			R_HJC			L_HJC			R_HJC_reg			L_HJC_reg			
		X1	Y1	Z1	X2	Y2	Z2	X3	Y3	Z3	X4	Y4	Z4	X5	Y5	Z5	X6	Y6	Z6	X7	Y7	Z7	X8	Y8	Z8	X9	Y9	Z9	X10	Y10	Z10	X11	Y11	Z11	X12	Y12	Z12	X13	Y13	Z13	X14	Y14	Z14	X15	Y15	Z15	X16	Y16	Z16	X17	Y17	Z17	X18	Y18	Z18	X19	Y19	Z19	X20	Y20	Z20	X21	Y21	Z21	X22	Y22	Z22	X23	Y23	Z23	X24	Y24	Z24	X25	Y25	Z25	X26	Y26	Z26	X27	Y27	Z27	X28	Y28	Z28	X29	Y29	Z29	X30	Y30	Z30	X31	Y31	Z31	X32	Y32	Z32	X33	Y33	Z33	X34	Y34	Z34	X35	Y35	Z35	X36	Y36	Z36	X37	Y37	Z37	X38	Y38	Z38	X39	Y39	Z39	X40	Y40	Z40	X41	Y41	Z41	X42	Y42	Z42	X43	Y43	Z43	X44	Y44	Z44	X45	Y45	Z45	X46	Y46	Z46	X47	Y47	Z47	X48	Y48	Z48	X49	Y49	Z49	X50	Y50	Z50	X51	Y51	Z51	

65	0.64000000	-989.04021	853.30168	-401.25473	-1020.97684	706.46693	-408.34645	-1271.37716	437.08530	-404.92132	-1338.38042	419.51388	-466.15500	-1156.06657	350.59079	-374.24400	-1115.05194	370.67245	-426.55468	-1031.87048	842.47800	-740.38746	-1069.93315	641.25960	-716.33704	-1291.78886	426.30171	-739.41000	-1362.86706	390.15562	-681.70424	-1166.30915	343.85160	-776.82944	-1124.70436	371.97277	-716.53048	-1086.62014	612.67379	-415.98530	-1075.03878	738.37035	-367.71295	-1142.38376	649.33548	-362.80614	-1118.61007	682.43899	-777.72139	-1189.29449	588.36164	-767.42952	-1057.88290	1138.62470	-378.38257	-1003.16606	1041.29167	-379.34498	-1048.39884	988.87115	-374.92481	-1156.58872	1085.78763	-405.33614	-1098.82978	981.50630	-396.59926	-1048.88274	1139.50621	-755.90735	-1007.76102	1009.87401	-745.52167	-1154.36588	1109.33271	-769.39046	-1109.56020	979.02818	-770.81983	-1063.87483	1354.74419	-452.57540	-1227.57847	1450.03830	-534.17672	-1081.85808	1348.63788	-723.48245	-1230.59769	1452.82969	-628.25215	-944.97781	1855.73032	-602.77677	-886.01885	1799.72986	-442.64059	-895.92533	1809.62203	-764.41717	-848.53044	1726.33745	-576.74557	-848.92454	1723.42260	-624.50914	-888.44477	1567.92593	-317.82687	-968.69679	1426.46561	-303.58398	-941.80936	1478.42693	-238.68419	-743.54184	1454.72277	-320.05978	-666.69591	1446.24286	-364.60770	-660.57093	1423.28891	-333.63589	-841.68562	1553.81813	-862.25068	-915.66126	1437.75439	-867.67069	-865.47483	1471.75519	-930.65055	-686.26417	1475.76206	-826.79413	-634.24941	1480.89197	-776.72144	-622.57837	1462.29945	-803.05355	-1173.45536	1294.90499	-483.14811	-1188.55704	1296.44056	-680.04077	-1163.00164	1295.93312	-489.77952	-1168.74800	1301.24619	-668.84529	
66	0.65000000	-979.73233	849.83597	-401.92187	-1013.45060	703.62652	-409.10629	-1269.31702	439.41885	-405.05326	-1336.64950	422.98743	-466.20581	-1155.46312	351.11308	-374.26966	-1114.30924	370.33992	-426.81131	-1023.78293	837.69155	-738.42290	-1064.67708	637.88408	-715.16620	-1290.89005	426.96230	-738.84879	-1362.39513	391.33586	-681.45584	-1166.20652	343.75121	-776.76985	-1124.42619	371.62192	-716.46867	-1080.85579	611.09406	-416.75835	-1066.83609	736.41042	-368.47644	-1135.55669	647.98231	-363.61096	-1112.73856	679.88532	-776.44090	-1185.39536	587.13864	-766.67134	-1050.64808	1134.47767	-378.90387	-995.41560	1037.47193	-379.78498	-1040.36304	984.63966	-375.52290	-1149.10813	1080.96981	-406.23704	-1090.56590	976.99174	-397.47111	-1041.77983	1134.77650	-755.33376	-1000.26230	1005.30750	-744.97193	-1147.08428	1104.13036	-768.98120	-1101.58913	973.96893	-769.93300	-1058.89163	1349.99691	-452.50402	-1223.02130	1444.37378	-534.50979	-1076.53363	1344.36422	-722.98160	-1225.75822	1447.19595	-628.56395	-942.00535	1851.44657	-602.43933	-882.59212	1795.79887	-443.35246	-892.66651	1805.79025	-763.25025	-844.57323	1723.21077	-577.18760	-844.95065	1720.03501	-624.00599	-880.64922	1565.49123	-316.54105	-957.82227	1422.36409	-300.99084	-931.89574	1475.61216	-236.65329	-733.34012	1455.97199	-318.48083	-656.54082	1449.09926	-363.26320	-649.81568	1426.46241	-332.01804	-832.80544	1553.19572	-864.13415	-903.42332	1435.11440	-870.35039	-854.58994	1471.13549	-933.53335	-675.30749	1479.47133	-829.15213	-623.31109	1485.58750	-779.50843	-611.30555	1467.21239	-805.60046	-1168.10705	1289.56491	-483.34645	-1182.72847	1291.23785	-680.27305	-1157.69799	1290.90763	-489.96115	-1162.90150	1296.27203	-668.73844	
67	0.66000000	-970.59363	846.48885	-402.74654	-1006.05787	700.91622	-409.87704	-1267.15785	441.82399	-405.51493	-1334.80141	426.51005	-466.49203	-1154.98803	351.65454	-374.55328	-1113.53691	370.03702	-427.05684	-1015.73773	832.83338	-736.27754	-1059.41909	634.57484	-714.08034	-1289.64732	428.11128	-738.38612	-1361.77785	392.77550	-681.32152	-1166.06449	343.59665	-776.67973	-1124.19224	371.11156	-716.42361	-1075.09210	609.62371	-417.41758	-1058.85152	734.56609	-369.29830	-1129.31986	647.78905	-364.35346	-1106.75952	677.48289	-775.23288	-1181.60345	586.00582	-766.11891	-1043.31641	1130.67906	-379.36003	-987.59559	1033.71781	-380.21046	-1032.13280	980.88868	-375.87857	-1141.47199	1076.07014	-407.05868	-1082.19524	972.72388	-398.38873	-1034.61906	1129.92546	-755.08951	-992.94558	1000.60120	-744.61701	-1139.67343	1099.02555	-768.40726	-1093.74026	969.01064	-769.06885	-1053.68664	1345.43537	-452.20517	-1218.12905	1438.99090	-534.87188	-1070.45671	1339.76037	-721.84767	-1220.63111	1441.78498	-628.87726	-939.11697	1847.71544	-602.18897	-879.22152	1792.43809	-444.33146	-889.31737	1802.85480	-762.27793	-840.61646	1720.39563	-577.47947	-840.91664	1717.31901	-623.59958	-872.80273	1564.01068	-314.97175	-946.89586	1419.20901	-297.51400	-921.92178	1473.92636	-233.93838	-723.24627	1458.35302	-316.77325	-646.52322	1453.10278	-361.78166	-639.13407	1430.88637	-330.19673	-823.85887	1553.52813	-866.37769	-891.02773	1433.50975	-873.65389	-843.42870	1471.77117	-936.96056	-664.40445	1484.34378	-831.98781	-612.61745	1491.78849	-782.50330	-600.13301	1473.55702	-808.50344	-1162.62765	1284.52993	-483.17161	-1176.43724	1285.98266	-680.15798	-1151.91854	1286.12642	-489.76233	-1156.66240	1291.42308	-667.96940	
68	0.67000000	-961.67959	843.23832	-403.75481	-998.86112	698.35819	-410.73965	-1264.90139	444.11858	-406.05816	-1332.75688	429.95746	-466.93651	-1154.44279	352.21462	-374.78511	-1112.54682	369.73221	-427.26291	-1007.60832	828.67007	-735.13269	-1054.28411	631.18655	-712.89910	-1288.12407	429.57295	-738.01226	-1360.96301	394.41844	-681.31083	-1165.83481	343.44734	-776.59534	-1123.76224	370.49788	-716.37693	-1069.41708	608.23522	-418.03078	-1051.10338	732.78751	-369.94383	-1123.07889	647.46708	-365.01087	-1100.53122	675.29055	-774.50478	-1177.40659	584.88757	-765.55480	-1036.01732	1126.99886	-379.77923	-979.61696	1030.25243	-380.61543	-1023.86280	977.42341	-376.39979	-1133.67878	1071.43006	-407.75710	-1073.85409	968.74713	-399.21008	-1027.13879	1125.32111	-754.84334	-985.40491	996.04978	-743.99151	-1132.12386	1094.26709	-767.74368	-1086.13218	964.34433	-768.55435	-1048.15842	1341.23033	-451.81525	-1212.90163	1434.04005	-535.35928	-1063.79310	1335.14475	-721.31865	-1215.17247	1436.77541	-629.26471	-936.27835	1844.59600	-601.83357	-875.91910	1789.81949	-445.57551	-885.93849	1800.77942	-761.36196	-836.56321	1718.12277	-577.49361	-836.76696	1715.42174	-623.27565	-864.93500	1563.49651	-313.13984	-936.05629	1417.52911	-293.79554	-911.89428	1473.30686	-230.71430	-713.29768	1461.97172	-314.90743	-636.71405	1458.27708	-360.17359	-628.61100	1436.37170	-328.51210	-814.77919	1554.89096	-868.68568	-878.60476	1433.05617	-877.77896	-832.08595	1473.57635	-940.38386	-653.54442	1490.43174	-835.29076	-602.14122	1499.33656	-785.73371	-589.12299	1481.45974	-811.74179	-1156.83503	1279.87464	-483.10412	-1169.80935	1280.98692	-680.15082	-1145.84869	1281.43907	-489.56894	-1150.15359	1286.62556	-667.65837	
